<!DOCTYPE svg PUBLIC "-//W3C//DTD SVG 1.1//EN" "http://www.w3.org/Graphics/SVG/1.1/DTD/svg11.dtd">
<!-- Uploaded to: SVG Repo, www.svgrepo.com, Transformed by: SVG Repo Mixer Tools -->
<svg fill="#1c821e" width="64px" height="64px" viewBox="-302.08 -302.08 1116.16 1116.16" xmlns="http://www.w3.org/2000/svg" stroke="#1c821e">
<g id="SVGRepo_bgCarrier" stroke-width="0"/>
<g id="SVGRepo_tracerCarrier" stroke-linecap="round" stroke-linejoin="round"/>
<g id="SVGRepo_iconCarrier"> <g id="School_location"> <path d="M375.8746,98.8107c-66.142-66.2787-173.6072-66.2787-239.7492,0a169.393,169.393,0,0,0-4.9005,234.5L246.3763,458.6982a13.1279,13.1279,0,0,0,19.25,0L380.7751,333.3111A169.393,169.393,0,0,0,375.8746,98.8107ZM343.5,300.0607a8.7752,8.7752,0,0,1-8.75,8.75h-52.5v-39.375a26.2056,26.2056,0,0,0-27.6492-26.1624c-14.1761.7007-24.8508,13.4753-24.8508,27.6492v37.8882h-52.5a8.7752,8.7752,0,0,1-8.75-8.75V230.1483a8.7941,8.7941,0,0,1,8.75-8.8376h35l30.625-30.625V114.7363c.2713-17.2522,25.9787-17.2586,26.25,0h43.75v48.125h-43.75v27.8244l30.625,30.625h35a8.7941,8.7941,0,0,1,8.75,8.8376Z"/> </g> </g>
</svg>